<svg id="visual" viewBox="0 0 900 600" width="900" height="600" xmlns="http://www.w3.org/2000/svg" xmlns:xlink="http://www.w3.org/1999/xlink" version="1.1"><path d="M0 43L9.3 54C18.7 65 37.3 87 56.2 92C75 97 94 85 112.8 85C131.7 85 150.3 97 169 97C187.7 97 206.3 85 225 81C243.7 77 262.3 81 281.2 79C300 77 319 69 337.8 70C356.7 71 375.3 81 394 82C412.7 83 431.3 75 450 72C468.7 69 487.3 71 506.2 79C525 87 544 101 562.8 98C581.7 95 600.3 75 619 70C637.7 65 656.3 75 675 86C693.7 97 712.3 109 731.2 104C750 99 769 77 787.8 75C806.7 73 825.3 91 844 91C862.7 91 881.3 73 890.7 64L900 55L900 0L890.7 0C881.3 0 862.7 0 844 0C825.3 0 806.7 0 787.8 0C769 0 750 0 731.2 0C712.3 0 693.7 0 675 0C656.3 0 637.7 0 619 0C600.3 0 581.7 0 562.8 0C544 0 525 0 506.2 0C487.3 0 468.7 0 450 0C431.3 0 412.7 0 394 0C375.3 0 356.7 0 337.8 0C319 0 300 0 281.2 0C262.3 0 243.7 0 225 0C206.3 0 187.7 0 169 0C150.3 0 131.7 0 112.8 0C94 0 75 0 56.2 0C37.3 0 18.7 0 9.3 0L0 0Z" fill="#82c3ec"></path><path d="M0 91L9.3 101C18.7 111 37.3 131 56.2 141C75 151 94 151 112.8 160C131.7 169 150.3 187 169 185C187.7 183 206.3 161 225 155C243.7 149 262.3 159 281.2 160C300 161 319 153 337.8 153C356.7 153 375.3 161 394 157C412.7 153 431.3 137 450 127C468.7 117 487.3 113 506.2 122C525 131 544 153 562.8 150C581.7 147 600.3 119 619 117C637.7 115 656.3 139 675 153C693.7 167 712.3 171 731.2 167C750 163 769 151 787.8 149C806.7 147 825.3 155 844 157C862.7 159 881.3 155 890.7 153L900 151L900 53L890.7 62C881.3 71 862.7 89 844 89C825.3 89 806.7 71 787.8 73C769 75 750 97 731.2 102C712.3 107 693.7 95 675 84C656.3 73 637.7 63 619 68C600.3 73 581.7 93 562.8 96C544 99 525 85 506.2 77C487.3 69 468.7 67 450 70C431.3 73 412.7 81 394 80C375.3 79 356.7 69 337.8 68C319 67 300 75 281.2 77C262.3 79 243.7 75 225 79C206.3 83 187.7 95 169 95C150.3 95 131.7 83 112.8 83C94 83 75 95 56.2 90C37.3 85 18.7 63 9.3 52L0 41Z" fill="#69abd2"></path><path d="M0 259L9.3 276C18.7 293 37.3 327 56.2 327C75 327 94 293 112.8 303C131.7 313 150.3 367 169 366C187.7 365 206.3 309 225 299C243.7 289 262.3 325 281.2 331C300 337 319 313 337.8 303C356.7 293 375.3 297 394 287C412.7 277 431.3 253 450 268C468.7 283 487.3 337 506.2 363C525 389 544 387 562.8 384C581.7 381 600.3 377 619 356C637.7 335 656.3 297 675 285C693.7 273 712.3 287 731.2 285C750 283 769 265 787.8 275C806.7 285 825.3 323 844 335C862.7 347 881.3 333 890.7 326L900 319L900 149L890.7 151C881.3 153 862.7 157 844 155C825.3 153 806.7 145 787.8 147C769 149 750 161 731.2 165C712.3 169 693.7 165 675 151C656.3 137 637.7 113 619 115C600.3 117 581.7 145 562.8 148C544 151 525 129 506.2 120C487.3 111 468.7 115 450 125C431.3 135 412.7 151 394 155C375.3 159 356.7 151 337.8 151C319 151 300 159 281.2 158C262.3 157 243.7 147 225 153C206.3 159 187.7 181 169 183C150.3 185 131.7 167 112.8 158C94 149 75 149 56.2 139C37.3 129 18.7 109 9.3 99L0 89Z" fill="#4f93b9"></path><path d="M0 427L9.3 431C18.7 435 37.3 443 56.2 424C75 405 94 359 112.8 372C131.7 385 150.3 457 169 469C187.7 481 206.3 433 225 415C243.7 397 262.3 409 281.2 418C300 427 319 433 337.8 433C356.7 433 375.3 427 394 419C412.7 411 431.3 401 450 406C468.7 411 487.3 431 506.2 440C525 449 544 447 562.8 454C581.7 461 600.3 477 619 463C637.7 449 656.3 405 675 398C693.7 391 712.3 421 731.2 420C750 419 769 387 787.8 391C806.7 395 825.3 435 844 454C862.7 473 881.3 471 890.7 470L900 469L900 317L890.7 324C881.3 331 862.7 345 844 333C825.3 321 806.7 283 787.8 273C769 263 750 281 731.2 283C712.3 285 693.7 271 675 283C656.3 295 637.7 333 619 354C600.3 375 581.7 379 562.8 382C544 385 525 387 506.2 361C487.3 335 468.7 281 450 266C431.3 251 412.7 275 394 285C375.3 295 356.7 291 337.8 301C319 311 300 335 281.2 329C262.3 323 243.7 287 225 297C206.3 307 187.7 363 169 364C150.3 365 131.7 311 112.8 301C94 291 75 325 56.2 325C37.3 325 18.7 291 9.3 274L0 257Z" fill="#337ca1"></path><path d="M0 601L9.3 601C18.7 601 37.3 601 56.2 601C75 601 94 601 112.8 601C131.7 601 150.3 601 169 601C187.7 601 206.3 601 225 601C243.7 601 262.3 601 281.2 601C300 601 319 601 337.8 601C356.7 601 375.3 601 394 601C412.7 601 431.3 601 450 601C468.7 601 487.3 601 506.2 601C525 601 544 601 562.8 601C581.7 601 600.3 601 619 601C637.7 601 656.3 601 675 601C693.7 601 712.3 601 731.2 601C750 601 769 601 787.8 601C806.7 601 825.3 601 844 601C862.7 601 881.3 601 890.7 601L900 601L900 467L890.7 468C881.3 469 862.7 471 844 452C825.3 433 806.7 393 787.8 389C769 385 750 417 731.2 418C712.3 419 693.7 389 675 396C656.3 403 637.7 447 619 461C600.3 475 581.7 459 562.8 452C544 445 525 447 506.2 438C487.3 429 468.7 409 450 404C431.3 399 412.7 409 394 417C375.3 425 356.7 431 337.8 431C319 431 300 425 281.2 416C262.3 407 243.7 395 225 413C206.3 431 187.7 479 169 467C150.3 455 131.7 383 112.8 370C94 357 75 403 56.2 422C37.3 441 18.7 433 9.3 429L0 425Z" fill="#0f6589"></path></svg>